<svg xmlns="http://www.w3.org/2000/svg" width="100%" height="100%" viewBox="0 0 96 96">
	<ellipse cx="47.834" cy="47.903" rx="45.618" ry="45.716"
					 style="fill:none;stroke:rgb(235, 35, 35);stroke-width:3.12px;"/>
	<path
		d="M63.256,46.515c-0.107,-4.474 -0.741,-8.86 -1.85,-12.731c2.599,-0.838 5.082,-1.898 7.388,-3.162c3.725,4.541 5.841,10.031 6.124,15.893l-11.662,0Zm-4.249,-18.971c-1.268,-2.505 -2.722,-4.514 -4.345,-5.995c4.62,1.197 8.824,3.596 12.261,7.011c-2.004,1.051 -4.133,1.947 -6.346,2.656c-0.474,-1.317 -1.006,-2.545 -1.57,-3.672m-9.831,18.971l0,-10.563c3.29,-0.146 6.536,-0.625 9.654,-1.428c1.038,3.637 1.641,7.765 1.743,11.991l-11.397,0Zm0,-25.09c2.736,0.625 5.357,3.197 7.428,7.286c0.497,0.993 0.967,2.079 1.392,3.246c-2.851,0.723 -5.813,1.162 -8.82,1.303l0,-11.835Zm-2.683,11.884c-0.23,0 -0.466,-0.004 -0.718,-0.009c-2.781,-0.071 -5.552,-0.394 -8.24,-0.971c0.453,-1.286 0.967,-2.505 1.53,-3.618c2.071,-4.089 4.692,-6.661 7.428,-7.286l0,11.884Zm0,13.206l-11.397,0c0.098,-4.071 0.661,-8.062 1.632,-11.6c2.927,0.634 5.947,0.997 8.98,1.073c0.288,0.009 0.546,0.013 0.785,0.013l0,10.514Zm0,13.202c-0.253,0.004 -0.514,0.009 -0.785,0.013c-3.033,0.076 -6.053,0.439 -8.98,1.078c-0.971,-3.539 -1.534,-7.534 -1.632,-11.605l11.397,0l0,10.514Zm0,14.585c-2.736,-0.63 -5.357,-3.197 -7.428,-7.29c-0.563,-1.113 -1.077,-2.333 -1.534,-3.619c2.692,-0.576 5.463,-0.9 8.244,-0.971c0.261,-0.004 0.496,-0.013 0.718,-0.013l0,11.893Zm-18.328,-7.738c2.129,-1.025 4.399,-1.876 6.754,-2.532c0.514,1.481 1.1,2.878 1.743,4.15c1.264,2.502 2.723,4.51 4.346,5.991c-4.901,-1.259 -9.304,-3.866 -12.843,-7.609m-7.414,-17.361l11.662,0c0.098,4.341 0.674,8.456 1.712,12.248c-2.727,0.767 -5.339,1.774 -7.769,2.998c-3.401,-4.417 -5.33,-9.677 -5.605,-15.246m5.605,-17.934c2.43,1.229 5.042,2.235 7.774,2.998c-1.043,3.796 -1.619,7.907 -1.717,12.248l-11.662,0c0.27,-5.569 2.204,-10.824 5.605,-15.246m14.66,-9.729c-1.627,1.486 -3.086,3.494 -4.354,6.004c-0.643,1.273 -1.229,2.666 -1.743,4.147c-2.355,-0.657 -4.621,-1.513 -6.754,-2.537c3.543,-3.747 7.947,-6.355 12.851,-7.614m37.22,25.321c-0.222,-6.816 -2.635,-13.193 -6.972,-18.439c-0.434,-0.523 -0.891,-1.042 -1.361,-1.538c-5.543,-5.858 -13.029,-9.229 -21.068,-9.49c-0.661,-0.018 -1.331,-0.018 -2,0c-8.271,0.266 -16.186,3.977 -21.707,10.181c-0.462,0.519 -0.901,1.051 -1.313,1.584c-3.965,5.099 -6.173,11.223 -6.381,17.698c-0.009,0.359 -0.018,0.683 -0.018,1.002c0,0.315 0.009,0.643 0.018,0.998c0.208,6.479 2.416,12.603 6.381,17.707c0.408,0.532 0.851,1.064 1.313,1.583c5.521,6.199 13.432,9.911 21.707,10.182c0.354,0.009 0.682,0.017 0.997,0.017c0.315,0 0.643,-0.008 0.998,-0.017c2.018,-0.067 3.996,-0.324 5.92,-0.772c0.47,-0.106 0.763,-0.581 0.652,-1.051l-0.545,-2.386c-0.062,0.018 -0.125,0.031 -0.191,0.045c0.058,-0.045 0.111,-0.098 0.168,-0.156l-0.345,-1.516c-0.151,-0.665 -0.967,-0.905 -1.459,-0.43c-1.224,1.166 -2.524,1.929 -3.854,2.239l0,-11.84c0.625,0.031 1.246,0.071 1.871,0.124c0.59,0.058 1.069,-0.483 0.936,-1.064l-0.222,-0.963c-0.084,-0.376 -0.403,-0.647 -0.785,-0.678c-0.598,-0.049 -1.197,-0.089 -1.8,-0.115l0,-10.563l11.397,0c-0.045,1.796 -0.178,3.565 -0.395,5.29c-0.049,0.364 0.129,0.714 0.452,0.887l0.878,0.47c0.537,0.293 1.198,-0.044 1.282,-0.647c0.262,-1.956 0.417,-3.969 0.466,-6l11.662,0c-0.195,3.986 -1.228,7.787 -3.037,11.246c-0.222,0.425 -0.067,0.949 0.355,1.179l1.365,0.736c0.431,0.231 0.967,0.067 1.193,-0.363c2.116,-4.027 3.291,-8.479 3.442,-13.14c0.008,-0.355 0.013,-0.683 0.013,-1.002c0,-0.315 -0.005,-0.643 -0.013,-0.998"
		style="fill:rgb(235, 35, 35);fill-rule:nonzero;"/>
	<path d="M63.849,73.82l-4.728,6.864l-6.053,-26.496l23.889,12.865l-7.858,2.753l5.397,7.127l-5.251,4.008l-5.396,-7.121Z"
				style="fill:rgb(235, 35, 35);fill-rule:nonzero;"/>
</svg>
